<svg width="48" height="48" viewBox="0 0 48 48" fill="none" xmlns="http://www.w3.org/2000/svg">
<g clip-path="url(#clip0_503_46)">
<path d="M40 0H8C3.58172 0 0 3.58172 0 8V40C0 44.4183 3.58172 48 8 48H40C44.4183 48 48 44.4183 48 40V8C48 3.58172 44.4183 0 40 0Z" fill="#C5EBE3"/>
<path d="M28.2701 35.984C29.6261 36.383 31.0311 36.5848 32.443 36.5833C34.7137 36.5866 36.9549 36.0619 38.9941 35.0495C39.0544 33.6055 38.6486 32.1809 37.8381 30.9917C37.0276 29.8024 35.8567 28.9134 34.5028 28.4593C33.1489 28.0052 31.6858 28.0108 30.3354 28.4752C28.9849 28.9397 27.8206 29.8376 27.019 31.033M28.2701 35.984V35.9791C28.2701 34.186 27.8155 32.4991 27.019 31.033M28.2701 35.984V36.1548C25.2107 38.0222 21.7057 39.0061 18.1343 39C14.4287 39 10.9616 37.9608 8.00159 36.1548L8 35.9791C7.99878 33.6986 8.74654 31.4824 10.1254 29.6801C11.5042 27.8778 13.4357 26.5919 15.6154 26.0251C17.795 25.4582 20.0988 25.6427 22.1636 26.5495C24.2283 27.4562 25.9366 29.0336 27.019 31.033M23.501 15.4375C23.501 16.8796 22.9358 18.2627 21.9296 19.2824C20.9234 20.3021 19.5588 20.875 18.1358 20.875C16.7129 20.875 15.3483 20.3021 14.3421 19.2824C13.3359 18.2627 12.7707 16.8796 12.7707 15.4375C12.7707 13.9954 13.3359 12.6123 14.3421 11.5926C15.3483 10.5729 16.7129 10 18.1358 10C19.5588 10 20.9234 10.5729 21.9296 11.5926C22.9358 12.6123 23.501 13.9954 23.501 15.4375ZM36.616 19.0625C36.616 20.1841 36.1763 21.2598 35.3937 22.053C34.6112 22.8461 33.5498 23.2917 32.443 23.2917C31.3363 23.2917 30.2749 22.8461 29.4923 22.053C28.7098 21.2598 28.2701 20.1841 28.2701 19.0625C28.2701 17.9408 28.7098 16.8651 29.4923 16.072C30.2749 15.2789 31.3363 14.8333 32.443 14.8333C33.5498 14.8333 34.6112 15.2789 35.3937 16.072C36.1763 16.8651 36.616 17.9408 36.616 19.0625Z" stroke="#16695B" stroke-width="1.5" stroke-linecap="round" stroke-linejoin="round"/>
</g>
<defs>
<clipPath id="clip0_503_46">
<rect width="48" height="48" fill="white"/>
</clipPath>
</defs>
</svg>
