<svg width="48" height="48" viewBox="0 0 48 48" fill="none" xmlns="http://www.w3.org/2000/svg">
<rect width="48" height="48" rx="8" fill="#C7DFF2"/>
<path d="M23.025 11.754C22.9275 12.069 22.875 12.4035 22.875 12.75C22.875 13.371 23.379 13.875 24 13.875H30.75C31.0484 13.875 31.3345 13.7565 31.5455 13.5455C31.7565 13.3345 31.875 13.0484 31.875 12.75C31.8751 12.4124 31.8245 12.0766 31.725 11.754M23.025 11.754C23.238 11.065 23.6661 10.4624 24.2464 10.0343C24.8267 9.60622 25.5289 9.37517 26.25 9.375H28.5C30.018 9.375 31.3005 10.377 31.725 11.754M23.025 11.754C22.461 11.7885 21.9 11.829 21.339 11.874C19.6425 12.015 18.375 13.4595 18.375 15.162V18.375M31.725 11.754C32.289 11.7885 32.85 11.829 33.411 11.874C35.1075 12.015 36.375 13.4595 36.375 15.162V30.75C36.375 31.6451 36.0194 32.5035 35.3865 33.1365C34.7535 33.7694 33.8951 34.125 33 34.125H29.625M18.375 18.375H13.3125C12.381 18.375 11.625 19.131 11.625 20.0625V36.9375C11.625 37.869 12.381 38.625 13.3125 38.625H27.9375C28.869 38.625 29.625 37.869 29.625 36.9375V34.125M18.375 18.375H27.9375C28.869 18.375 29.625 19.131 29.625 20.0625V34.125M17.25 29.625L19.5 31.875L24 26.25" stroke="#0A5C80" stroke-width="1.5" stroke-linecap="round" stroke-linejoin="round"/>
</svg>
